<?xml version="1.0" encoding="utf-8"?>
<!-- Generator: Adobe Illustrator 20.0.0, SVG Export Plug-In . SVG Version: 6.00 Build 0)  -->
<svg version="1.1" id="Layer_1" xmlns="http://www.w3.org/2000/svg" xmlns:xlink="http://www.w3.org/1999/xlink" x="0px" y="0px"
	 viewBox="0 0 466 82.6" style="enable-background:new 0 0 466 82.6;" xml:space="preserve">
<style type="text/css">
	.st0{fill:#005696;}
	.st1{fill:#ffffff;}
	.st2{fill:none;}
</style>
<g>
	<path d="M113.8,25.9c13.5,0,13.5,0,13.5,0c3.5,0,6,0.9,7.7,2.6c1.4,1.4,2.1,3,2.1,5.1c0,0.2,0,0.2,0,0.2c0,3.5-1.9,5.3-3.9,6.5
		c3.5,1.4,5.6,3.5,5.6,7.4c0,0.2,0,0.2,0,0.2c0,5.6-4.4,8.4-10.9,8.4c-13.9,0-13.9,0-13.9,0V25.9 M125.9,38.2c3,0,4.6-1.2,4.6-3.3
		c0-0.2,0-0.2,0-0.2c0-1.9-1.4-3-4.2-3c-6.3,0-6.3,0-6.3,0c0,6.5,0,6.5,0,6.5H125.9z M127.7,50.3c2.8,0,4.4-0.9,4.4-3.3
		c0-2.1-1.4-3.3-4.6-3.3c-7.4,0-7.4,0-7.4,0c0,6.5,0,6.5,0,6.5H127.7z"/>
	<polyline points="143.7,25.9 150.2,25.9 150.2,50.1 164.9,50.1 164.9,56.3 143.7,56.3 143.7,25.9 	"/>
	<path d="M180.2,25.7h5.8l12.5,30.6h-6.7l-2.6-7h-12.5l-2.6,7h-6.5L180.2,25.7 M186.9,43.6l-3.9-10l-3.9,10H186.9z"/>
	<path d="M199.5,41c0-8.6,6.3-15.8,15.1-15.8c5.6,0,8.8,2.1,11.6,4.9C222,35,222,35,222,35c-2.1-2.1-4.4-3.5-7.4-3.5
		c-4.9,0-8.4,4.2-8.4,9.5s3.3,9.5,8.4,9.5c3.3,0,5.3-1.4,7.7-3.5c4.2,4.4,4.2,4.4,4.2,4.4c-3,3.3-6.5,5.3-12.1,5.3
		C205.7,56.8,199.5,49.8,199.5,41"/>
	<polyline points="230.6,25.9 237.1,25.9 237.1,39.1 248.9,25.9 256.8,25.9 244.7,38.7 257.3,56.3 249.6,56.3 240.6,43.3 237.1,47 
		237.1,56.3 230.6,56.3 230.6,25.9 	"/>
	<path d="M283.1,52.1c-2.3,1.9-4.9,3-7.9,3c-5.1,0-9.1-3-9.1-8.1c0-3.5,1.9-6,5.1-7.7c-1.2-1.9-1.9-3.7-1.9-5.6c0-0.2,0-0.2,0-0.2
		c0-3.7,3-7.4,8.1-7.4c4.6,0,7.7,3.3,7.7,7.2s-2.3,6-5.6,7.4c3.5,3.7,3.5,3.7,3.5,3.7c0.9-1.4,1.9-3,2.6-4.9
		c4.4,2.6,4.4,2.6,4.4,2.6c-0.9,2.1-2.1,4.2-3.5,6c3.9,3.9,3.9,3.9,3.9,3.9c-4.4,3.3-4.4,3.3-4.4,3.3L283.1,52.1 M279.8,48.7
		c-5.3-5.6-5.3-5.6-5.3-5.6c-1.6,0.9-2.3,2.3-2.3,3.7c0,2.1,1.4,3.5,3.7,3.5C277.3,50.3,278.4,49.6,279.8,48.7z M280,33.8
		c0-1.6-1.2-2.8-2.6-2.8c-1.6,0-2.6,1.2-2.6,3c0,1.2,0.5,2.1,1.4,3.5C278.9,36.6,280,35.4,280,33.8z"/>
	<polyline points="296.5,25.9 303.7,25.9 311.4,47.3 319,25.9 325.8,25.9 314.2,56.6 308.4,56.6 296.5,25.9 	"/>
	<polyline points="329.7,25.9 351.8,25.9 351.8,31.7 336,31.7 336,38 349.9,38 349.9,43.8 336,43.8 336,50.3 352,50.3 352,56.3 
		329.7,56.3 329.7,25.9 	"/>
	<path d="M367.6,25.7h6l12.5,30.6h-6.7l-2.8-7h-12.3l-2.8,7H355L367.6,25.7 M374.3,43.6l-3.7-10l-3.9,10H374.3z"/>
	<polyline points="393.1,31.9 384.1,31.9 384.1,25.9 408.4,25.9 408.4,31.9 399.4,31.9 399.4,56.3 393.1,56.3 393.1,31.9 	"/>
	<path d="M410.1,41c0-8.6,6.3-15.8,15.1-15.8c5.6,0,8.8,2.1,11.6,4.9c-4.2,4.9-4.2,4.9-4.2,4.9c-2.1-2.1-4.4-3.5-7.4-3.5
		c-4.9,0-8.4,4.2-8.4,9.5s3.5,9.5,8.4,9.5c3.5,0,5.3-1.4,7.7-3.5c4.2,4.4,4.2,4.4,4.2,4.4c-3,3.3-6.3,5.3-12.1,5.3
		C416.3,56.8,410.1,49.8,410.1,41"/>
	<polyline points="441.4,25.9 447.7,25.9 447.7,37.7 459.5,37.7 459.5,25.9 466,25.9 466,56.3 459.5,56.3 459.5,44 447.7,44 
		447.7,56.3 441.4,56.3 441.4,25.9 	"/>
</g>
<g>
	<path class="st0" d="M0,4.8C0,2.2,2,0,4.8,0c81.5,0,81.5,0,81.5,0C89,0,91,2.2,91,4.8c0,72.5,0,72.5,0,72.5c0,2.8-2,4.7-4.8,4.7
		C4.8,82,4.8,82,4.8,82C2,82,0,80,0,77.3V4.8"/>
</g>
<path class="st1" d="M26.3,35.2h19.9c1.4,0,2.6,1.4,2.6,3c0,1.7-1.2,3-2.6,3H30.5C45.8,68,45.8,68,45.8,68c17.5,0,17.5,0,17.5,0
	c20.5-30,20.5-30,20.5-30H71C55.5,60.2,55.5,60.2,55.5,60.2c-5.9-10.9-6.4-11.9-6.5-12h4.7c5.6,0,8.9-3.9,9.2-8.8
	c0.2-2.8-0.9-5.3-2.8-6.9c1.9-1.6,3-4.1,2.8-6.9c-0.3-4.8-3.6-8.8-9.2-8.8v0c-40,0-40,0-40,0c0,31.2,0,31.2,0,31.2
	c16.2,0,16.2,0,16.2,0c-3.8-7-3.8-7-3.8-7C26.2,35.2,26.2,35.2,26.3,35.2 M26.3,29.1v-6h19.9c1.4,0,2.6,1.4,2.6,3c0,1.7-1.2,3-2.6,3
	H26.3z"/>
<rect x="-92.3" y="-82.3" class="st2" width="679.1" height="245.8"/>
<path class="st0" d="M97.8,82.6c2.2,0,4-1.8,4-4c0-2.2-1.8-4-4-4c-2.3,0-4,1.8-4,4C93.8,80.8,95.6,82.6,97.8,82.6 M97.8,82
	c-1.8,0-3.4-1.5-3.4-3.4c0-1.9,1.6-3.4,3.4-3.4c1.8,0,3.4,1.5,3.4,3.4C101.2,80.5,99.7,82,97.8,82 M98.4,78.7c0.8,0,1.4-0.3,1.4-1.2
	c0-0.9-0.8-1.1-1.6-1.1h-1.9v4.4H97v-2h0.7l1.3,2h0.7L98.4,78.7z M97,78.1V77h1.2c0.5,0,1.1,0.1,1.1,0.5c0,0.7-1,0.6-1.5,0.6H97z"/>
<path class="st1" d="M26.1,35.2h20c1.5,0,2.6,1.4,2.6,3c0,1.7-1.2,3-2.6,3H30.3c15.4,26.9,15.4,26.9,15.4,26.9c17.6,0,17.6,0,17.6,0
	C83.9,38,83.9,38,83.9,38H71.1C55.5,60.4,55.5,60.4,55.5,60.4c-5.9-11-6.5-12-6.5-12.1h4.8c5.7,0,9-4,9.3-8.8
	c0.2-2.8-0.9-5.3-2.9-6.9c2-1.6,3.1-4.1,2.9-6.9c-0.3-4.8-3.6-8.8-9.3-8.8v0c-40.3,0-40.3,0-40.3,0c0,31.5,0,31.5,0,31.5
	c16.4,0,16.4,0,16.4,0c-3.8-7.1-3.8-7.1-3.8-7.1C26.1,35.2,26.1,35.2,26.1,35.2 M26.1,29.1V23h20c1.5,0,2.6,1.4,2.6,3
	c0,1.7-1.2,3-2.6,3H26.1z"/>
</svg>
